<?xml version="1.0" encoding="UTF-8" standalone="no"?>
<!-- Created with Inkscape (http://www.inkscape.org/) -->

<svg
   xmlns:dc="http://purl.org/dc/elements/1.1/"
   xmlns:cc="http://creativecommons.org/ns#"
   xmlns:rdf="http://www.w3.org/1999/02/22-rdf-syntax-ns#"
   xmlns:svg="http://www.w3.org/2000/svg"
   xmlns="http://www.w3.org/2000/svg"
   xmlns:sodipodi="http://sodipodi.sourceforge.net/DTD/sodipodi-0.dtd"
   xmlns:inkscape="http://www.inkscape.org/namespaces/inkscape"
   width="561.62793"
   height="268.91519"
   id="svg2"
   version="1.1"
   inkscape:version="0.48.3.1 r9886"
   sodipodi:docname="logo.svg"
   inkscape:export-filename="/home/andrey/projects/sklandymas.lt/soaring-coupons/src/static/images/logo.png"
   inkscape:export-xdpi="33.4678"
   inkscape:export-ydpi="33.4678">
  <defs
     id="defs4" />
  <sodipodi:namedview
     id="base"
     pagecolor="#ffffff"
     bordercolor="#666666"
     borderopacity="1.0"
     inkscape:pageopacity="0.0"
     inkscape:pageshadow="2"
     inkscape:zoom="1"
     inkscape:cx="263.38856"
     inkscape:cy="226.10936"
     inkscape:document-units="px"
     inkscape:current-layer="layer1"
     showgrid="false"
     fit-margin-top="0"
     fit-margin-left="0"
     fit-margin-right="0.6"
     fit-margin-bottom="0"
     inkscape:window-width="1317"
     inkscape:window-height="744"
     inkscape:window-x="49"
     inkscape:window-y="24"
     inkscape:window-maximized="1" />
  <metadata
     id="metadata7">
    <rdf:RDF>
      <cc:Work
         rdf:about="">
        <dc:format>image/svg+xml</dc:format>
        <dc:type
           rdf:resource="http://purl.org/dc/dcmitype/StillImage" />
        <dc:title></dc:title>
      </cc:Work>
    </rdf:RDF>
  </metadata>
  <g
     inkscape:label="Layer 1"
     inkscape:groupmode="layer"
     id="layer1"
     transform="translate(-284.54626,-196.53125)">
    <path
       style="fill:#000000"
       d="m 365.78125,196.53125 -3.125,0.3125 c -2.96081,0.28863 -3.0989,0.55752 -3.71875,5.8125 -0.35682,3.025 -1.38959,22.40343 -2.28125,43.0625 -0.89171,20.65907 -1.96634,39.51239 -2.375,41.90625 l -0.75,4.34375 -14.46875,-15.375 c -7.96781,-8.46554 -19.43686,-20.60011 -25.5,-26.9375 -6.06315,-6.3374 -13.44329,-14.30911 -16.375,-17.75 -5.53853,-6.50047 -10.78698,-10.90051 -11.8125,-9.875 -0.96995,0.96995 6.1825,11.03364 13.40625,18.84375 3.70173,4.0022 13.75255,14.48125 22.3125,23.28125 20.59178,21.16924 27.35563,31.4614 30.53125,46.46875 2.06015,9.73591 0.60886,10.1187 -9.90625,2.53125 -4.51337,-3.25675 -8.65625,-4.55376 -8.65625,-2.71875 0,0.43142 1.2375,1.52516 2.75,2.4375 1.5125,0.91234 4.06278,2.90267 5.65625,4.40625 1.59347,1.50358 4.70845,3.64108 6.9375,4.78125 5.96472,3.05097 5.65029,4.19668 -1.4375,4.9375 -8.44364,0.88254 -42.13601,0.78442 -43.5,-0.125 -0.60605,-0.40408 -1.86386,-5.21875 -2.8125,-10.71875 -2.47057,-14.32382 -2.06207,-13.5 -7.125,-13.5 -4.24387,0 -4.40491,0.12819 -5.3125,3.75 -0.51683,2.0625 -1.22048,7.46501 -1.5625,12 -0.34202,4.535 -1.07841,9.40612 -1.625,10.84375 -0.66145,1.73963 -0.64177,3.82701 0.0312,6.25 0.55618,2.00237 1.0277,6.58125 1.0625,10.15625 0.0348,3.575 0.3912,8.30051 0.78125,10.5 0.66178,3.73173 0.97393,4.06353 4.96875,4.90625 2.88748,0.60913 4.64554,0.54196 5.375,-0.1875 0.59483,-0.59483 1.69084,-6.3793 2.4375,-12.84375 0.81171,-7.02767 1.86977,-12.08309 2.625,-12.5625 2.90079,-1.84139 49.6834,0.48117 51,2.53125 0.26521,0.15725 0.80274,2.54623 0.84375,3.78125 0.01,0.20785 0.0508,3.302 0.28125,5.78125 0.6005,6.46114 0.44732,7.12867 -1.96875,10 -1.51524,1.80076 -6.59572,4.98567 -12.25,7.6875 -10.583,5.05695 -10.70492,5.17009 -9.9375,5.9375 0.29128,0.29128 3.61837,-0.5552 7.40625,-1.875 8.81401,-3.07102 16.49405,-4.91219 17.28125,-4.125 0.33851,0.33851 0.59375,2.88139 0.59375,5.625 0,4.3592 -0.37697,5.31579 -3.125,7.65625 -4.06641,3.46331 -62.25086,54.91763 -64.84375,57.34375 -1.0847,1.01495 -1.53472,1.84403 -1,1.84375 0.53472,-2.8e-4 16.26875,-11.98604 34.96875,-26.625 l 34,-26.625 0.3125,4.375 c 0.17428,2.40173 1.29928,20.31197 2.5,39.8125 l 2.1875,35.46875 2.5,0.6875 c 3.71858,1.03348 3.73418,1.04474 4.59375,-0.84375 0.80855,-1.7764 1.2485,-24.32098 1.3125,-65.53125 0.0202,-12.96741 0.46996,-23.54496 1.03125,-24.59375 0.54201,-1.01274 2.17549,-2.61275 3.625,-3.5625 2.54067,-1.66471 2.71477,-1.64876 4.96875,0.46875 1.90522,1.78986 2.16646,2.62548 1.40625,4.625 -0.51311,1.34958 -0.9375,4.65034 -0.9375,7.3125 0,4.06714 -0.55906,5.51117 -3.5,9.03125 -2.955,3.5369 -3.5,4.95221 -3.5,9.09375 0,2.69797 0.21495,4.90625 0.46875,4.90625 0.2538,0 0.97768,-1.9125 1.59375,-4.25 0.69024,-2.61891 2.70611,-5.88006 5.25,-8.5 3.52456,-3.62992 4.15512,-4.94964 4.3125,-8.90625 0.22591,-5.67923 2.44061,-8.58849 6.1875,-8.15625 l 2.6875,0.3125 0.6875,15 c 0.3678,8.25 0.98519,27.6 1.375,43 1.00683,39.77615 2.44736,32.8167 4.46875,-21.65625 1.19901,-32.31114 1.68014,-36.84375 4,-36.84375 0.96028,0 3.386,1.79842 5.375,4 3.11531,3.44828 3.59375,4.6669 3.59375,8.875 0,3.99882 0.69219,5.86045 3.71875,10.25 2.03347,2.94921 4.24511,6.95 4.9375,8.875 l 1.25,3.5 0.0625,-5.46875 c 0.0399,-4.95706 -0.28172,-5.79567 -3.59375,-9.1875 -3.50012,-3.58446 -3.64152,-4.0013 -3.46875,-10.28125 0.11852,-4.30824 -0.36965,-7.5892 -1.40625,-9.59375 -1.61082,-3.11498 -1.30586,-4.99335 0.8125,-4.96875 2.00585,0.0233 12.56471,9.71382 29.15625,26.75 8.70424,8.9375 16.24317,16.25 16.75,16.25 1.36897,0 -4.20563,-7.42732 -15.9375,-21.21875 -12.19515,-14.33603 -22.28125,-27.26069 -22.28125,-28.59375 0,-0.51512 0.72617,-1.52997 1.59375,-2.25 2.77541,-2.30339 10.21383,0.42377 14.90625,5.46875 3.67411,3.95016 7.80521,6.10267 17.375,9.0625 4.12411,1.27554 1.45804,-1.16625 -5.03125,-4.625 -3.34747,-1.78419 -7.66405,-5.16022 -9.59375,-7.46875 -2.07656,-2.48424 -4.67819,-4.41063 -6.375,-4.75 -6.36984,-1.27396 -9.50037,-5.52517 -7,-9.46875 1.26057,-1.98815 7.53896,-3.11234 18.125,-3.25 5.225,-0.0679 10.625,-0.45879 12,-0.875 l 2.5,-0.75 -2.5,-0.625 c -1.375,-0.33444 -7.675,-1.13493 -14,-1.78125 -13.22954,-1.35185 -16.00068,-2.12474 -16,-4.59375 7.4e-4,-2.6589 9.32247,-10.19482 14.59375,-11.78125 2.54335,-0.76543 5.29324,-2.32587 6.09375,-3.46875 0.8005,-1.14288 3.28304,-2.99399 5.5,-4.125 2.21695,-1.131 3.79144,-2.3023 3.5,-2.59375 -1.09927,-1.09926 -8.26385,2.11541 -10.8125,4.84375 -2.05167,2.19632 -3.56234,2.84375 -6.625,2.84375 -2.89587,0 -4.99031,0.80687 -7.75,3 -4.28834,3.40795 -5.68548,3.66791 -7.5625,1.40625 -1.14799,-1.38325 -0.15264,-2.72426 7.625,-10.25 4.92159,-4.7622 12.91122,-12.20336 17.75,-16.53125 4.83877,-4.32789 8.59391,-8.06233 8.34375,-8.3125 -0.8938,-0.8938 -6.38793,2.71517 -22.15625,14.59375 -8.8,6.62921 -16.72984,12.0507 -17.625,12.0625 -0.89515,0.0118 -2.1935,-0.64759 -2.875,-1.46875 -1.88499,-2.27126 2.0302,-15.62536 5.84375,-19.96875 1.62414,-1.84979 3.70899,-5.74981 4.65625,-8.6875 0.94726,-2.93769 2.57582,-6.85064 3.625,-8.6875 1.2333,-2.15919 1.47682,-3.19796 0.65625,-2.9375 -0.69807,0.22158 -3.36414,3.87009 -5.90625,8.125 -2.54212,4.2549 -5.50705,8.72713 -6.59375,9.9375 -1.0867,1.21038 -2.74094,4.21297 -3.6875,6.65625 -0.94656,2.44329 -2.62927,5.73857 -3.75,7.3125 -1.69812,2.38478 -2.65289,2.7846 -5.65625,2.53125 -2.86742,-0.24188 -3.73241,-0.79217 -4.28125,-2.78125 -0.37939,-1.375 -0.7577,-27.5875 -0.8125,-58.25 -0.0586,-32.76153 -0.4651,-55.75 -1,-55.75 -1.25976,0 -1.85119,9.7253 -3.6875,61 -1.88474,52.62695 -2.12833,55.37876 -4.9375,55.78125 -1.53848,0.22042 -2.53822,-0.79278 -4.1875,-4.1875 -1.19687,-2.46352 -3.51704,-5.47558 -5.15625,-6.6875 -3.3485,-2.47566 -4.5299,-4.94293 -6.09375,-12.9375 -0.60001,-3.0673 -2.10378,-6.73422 -3.40625,-8.25 -3.40588,-3.96366 -4.625,-15.6796 -4.625,-44.90625 0,-13.49227 -0.29812,-27.98212 -0.65625,-32.21875 z m -3.1875,2.125 c 1.27263,0 1.4873,3.97374 1.5,28.25 0.0166,31.7545 1.65651,92.57821 2.59375,96.3125 0.60244,2.40031 0.79972,2.4325 11.25,2.4375 5.85287,0.003 12.425,0.46217 14.625,1.03125 7.38749,1.91096 12.5,4.10855 12.5,5.375 0,3.33553 -14.40088,6.06357 -28.03125,5.3125 l -9.65625,-0.53125 -0.65625,15.0625 c -0.35842,8.28093 -0.7018,34.4562 -0.75,58.15625 -0.0818,40.24666 -0.69213,55.19325 -2.15625,51.59375 -1.17476,-2.88812 -2.72631,-24.74559 -3.75,-53 -1.21477,-33.52874 -4.58937,-65.88238 -4.96653,-67.15625 -0.21734,-1.42662 -0.63924,-2.95124 -0.86975,-4.1452 -0.0684,-0.46019 -0.59143,-1.84264 -0.97622,-2.44855 -1.35959,-2.1409 -54.1875,-3.75561 -54.1875,-1.65625 0,0.93443 -3.10847,22.21372 -3.53125,24.15625 -0.49071,2.25479 -3.78868,3.15201 -4.90625,1.34375 -0.30371,-0.49142 -1.04961,-6.56642 -1.6875,-13.5 -0.87312,-9.49069 -0.88887,-15.64695 -0.0312,-24.96875 1.28709,-13.98992 1.70546,-15.625 4.03125,-15.625 2.86343,0 4.27113,3.87726 5.0625,14.09375 0.42189,5.44656 1.08732,10.248 1.5,10.65625 0.85675,0.84758 44.93836,0.63434 51.21875,-0.25 l 4.125,-0.59375 0.625,-7.21875 c 1.45572,-16.5949 2.55683,-40.5237 3.59375,-78.1875 0.60568,-22 1.30436,-41.0125 1.5625,-42.25 0.25814,-1.2375 1.15423,-2.25 1.96875,-2.25 z m 6.1875,85 c 1.71095,0.002 2.90219,2.7082 3.625,8.25 0.35003,2.68367 2.36793,7.92711 4.59375,12 2.17424,3.97853 4.07745,8.6 4.25,10.25 0.26898,2.57206 -0.0285,3.02613 -2.21875,3.28125 -3.54346,0.41275 -7.49726,-2.99601 -9.34375,-8.0625 -1.98605,-5.44941 -2.70238,-25.72075 -0.90625,-25.71875 z M 368.53125,321 c 0.22696,0.0335 0.5613,0.26622 1.03125,0.65625 0.825,0.68469 1.5,1.64235 1.5,2.125 0,0.48266 -0.675,0.875 -1.5,0.875 -0.86218,0 -1.5,-0.90505 -1.5,-2.125 0,-1.10828 0.0905,-1.58702 0.46875,-1.53125 z"
       id="path3184"
       inkscape:connector-curvature="0"
       sodipodi:nodetypes="ccsscccssssssssssssssssscsssssssccssssssssssccccccssssssssssssscccsssssscccssscsssssssssssscccssssscsssssscscsssssssssssssssssssscccsscsscccsssccsscsssssccccsssccsssscccssscc" />
    <text
       xml:space="preserve"
       style="font-size:36px;font-style:normal;font-variant:normal;font-weight:bold;font-stretch:normal;text-align:start;line-height:125%;letter-spacing:0px;word-spacing:0px;text-anchor:start;fill:#000000;fill-opacity:1;stroke:none;font-family:Arial;-inkscape-font-specification:Arial Bold"
       x="473.53516"
       y="315.42084"
       id="text3967"
       sodipodi:linespacing="125%"><tspan
         sodipodi:role="line"
         id="tspan3969"
         x="473.53516"
         y="315.42084"
         style="font-size:56px;font-style:normal;font-variant:normal;font-weight:normal;font-stretch:normal;text-align:start;line-height:125%;letter-spacing:0px;word-spacing:0px;text-anchor:start;font-family:Sans;-inkscape-font-specification:Sans"
         rotate="0 0 0 0 0 0 0 0 0"
         dy="0"
         dx="0">VILNIAUS</tspan><tspan
         sodipodi:role="line"
         x="473.53516"
         y="385.42084"
         id="tspan3971"
         style="font-size:56px;font-style:normal;font-variant:normal;font-weight:normal;font-stretch:normal;text-align:start;line-height:125%;letter-spacing:0px;word-spacing:0px;text-anchor:start;font-family:Sans;-inkscape-font-specification:Sans"
         rotate="0 0 0 0 0 0 0 0 0 0 0">AEROKLUBAS</tspan></text>
  </g>
</svg>
